<svg width="16" height="16" viewBox="0 0 16 16" fill="none" xmlns="http://www.w3.org/2000/svg">
    <path fill-rule="evenodd" clip-rule="evenodd"
        d="M15 3H13V2C13 1.45 12.55 1 12 1H10C9.45 1 9 1.45 9 2V3H7V2C7 1.45 6.55 1 6 1H4C3.45 1 3 1.45 3 2V3H1C0.45 3 0 3.45 0 4V14C0 14.55 0.45 15 1 15H15C15.55 15 16 14.55 16 14V4C16 3.45 15.55 3 15 3ZM6.71 11.29C6.89 11.47 7 11.72 7 12C7 12.55 6.55 13 6 13C5.72 13 5.47 12.89 5.29 12.71L2.29 9.71C2.11 9.53 2 9.28 2 9C2 8.72 2.11 8.47 2.29 8.29L5.29 5.29C5.47 5.11 5.72 5 6 5C6.55 5 7 5.45 7 6C7 6.28 6.89 6.53 6.71 6.71L4.41 9L6.71 11.29ZM13.71 9.71L10.71 12.71C10.53 12.89 10.28 13 10 13C9.45 13 9 12.55 9 12C9 11.72 9.11 11.47 9.29 11.29L11.59 9L9.29 6.71C9.11 6.53 9 6.28 9 6C9 5.45 9.45 5 10 5C10.28 5 10.53 5.11 10.71 5.29L13.71 8.29C13.89 8.47 14 8.72 14 9C14 9.28 13.89 9.53 13.71 9.71Z"
        fill="#5C7680" />
</svg>